<svg width="591" height="356" viewBox="0 0 591 356" fill="none" xmlns="http://www.w3.org/2000/svg">
<path d="M402.08 203.22L407.143 202.343C407.629 202.258 408.111 202.154 408.597 202.066C400.583 197.086 394.499 189.524 391.345 180.624C388.191 171.724 388.155 162.015 391.242 153.091C394.329 144.168 400.356 136.561 408.333 131.521C416.31 126.481 425.761 124.307 435.135 125.356L428.499 141.166L444.222 127.421C444.258 127.43 444.294 127.442 444.329 127.457C449.478 129.273 454.219 132.086 458.282 135.736C462.344 139.386 465.649 143.801 468.008 148.73C470.366 153.659 471.731 159.004 472.026 164.461C472.321 169.918 471.539 175.38 469.726 180.535C469.463 181.285 469.149 182 468.849 182.725C473.288 180.492 477.546 177.893 481.018 174.564C488.048 167.82 491.9 158.513 496.204 147.047C504.732 124.324 512.942 101.273 520.825 78.1718C512.131 73.4616 505.399 65.8022 501.839 56.5694C498.278 47.3365 498.123 37.1353 501.4 27.798C501.823 26.5967 502.312 25.44 502.83 24.3039C502.96 24.0196 503.091 23.7371 503.226 23.4568C503.753 22.3676 504.31 21.3005 504.92 20.2763C505.02 20.1084 505.132 19.9513 505.234 19.7852C505.765 18.9217 506.326 18.0837 506.916 17.2713C507.135 16.9663 507.354 16.6621 507.581 16.3643C508.249 15.4896 508.941 14.6384 509.671 13.8258C509.915 13.5539 510.173 13.2998 510.424 13.035C510.984 12.4428 511.56 11.8685 512.151 11.312C512.463 11.0191 512.772 10.724 513.092 10.4415C513.174 10.369 513.25 10.2899 513.333 10.218C513.337 10.2233 513.34 10.229 513.344 10.2342C520.666 3.84635 529.992 0.228865 539.701 0.0104971C549.41 -0.207871 558.888 2.98667 566.489 9.03891L557.853 29.6131L573.398 16.0315C578.838 22.9704 581.921 31.4681 582.197 40.2849C582.473 49.1017 579.929 57.7762 574.934 65.043C574.948 65.0481 574.963 65.052 574.977 65.057C574.808 65.3068 574.615 65.5353 574.44 65.7806C574.113 66.241 573.777 66.6931 573.434 67.1371C572.992 67.7064 572.533 68.2567 572.065 68.7994C571.712 69.2091 571.363 69.6221 570.995 70.0162C570.457 70.5927 569.893 71.1385 569.326 71.6813C568.994 71.9979 568.677 72.3305 568.337 72.6355C567.443 73.4346 566.519 74.1928 565.563 74.9102C565.228 75.1614 564.875 75.383 564.533 75.6237C563.862 76.096 563.188 76.5614 562.492 76.9925C562.059 77.2598 561.616 77.5042 561.175 77.7555C560.536 78.1196 559.893 78.4724 559.237 78.802C558.771 79.0356 558.302 79.2573 557.829 79.4734C557.155 79.781 556.472 80.0662 555.782 80.3377C555.32 80.5197 554.859 80.704 554.39 80.8695C553.616 81.1425 552.83 81.3797 552.04 81.6067C551.641 81.7215 551.249 81.8528 550.846 81.9556C549.661 82.2582 548.462 82.5159 547.25 82.7133C547.022 82.7506 546.789 82.7646 546.561 82.798C545.555 82.9444 544.545 83.0626 543.526 83.1348C543.089 83.1656 542.648 83.1701 542.209 83.1872C541.385 83.2193 540.561 83.2356 539.733 83.2179C539.249 83.2076 538.766 83.1826 538.282 83.1552C537.475 83.1095 536.668 83.0392 535.859 82.9442C535.382 82.8888 534.905 82.8338 534.427 82.7613C533.561 82.6298 532.696 82.4577 531.831 82.2693C531.774 82.257 531.717 82.2495 531.66 82.237C528.333 91.983 524.945 101.708 521.494 111.413C525.702 107.624 530.639 104.737 536.002 102.927C541.365 101.118 547.041 100.424 552.681 100.89C558.321 101.355 563.806 102.97 568.801 105.634C573.795 108.298 578.193 111.956 581.725 116.383L567.354 132.295L586.811 124.518C591.537 134.44 592.135 145.835 588.474 156.199C587.206 159.84 585.428 163.283 583.194 166.426C578.387 173.233 571.647 178.438 563.85 181.364C556.052 184.29 547.556 184.803 539.464 182.836C531.371 180.868 524.056 176.512 518.467 170.332C512.878 164.151 509.273 156.432 508.119 148.175C507.753 149.153 507.4 150.143 507.034 151.12C503.235 161.235 498.51 173.824 489.02 182.926C482.587 189.095 474.672 193.009 467.079 196.318C462.134 198.473 457.123 200.464 452.047 202.294C446.404 205.72 440.028 207.754 433.445 208.229C425.436 210.457 417.325 212.316 409.138 213.752L404.034 214.633C399.446 215.42 394.742 216.23 390.074 217.163C390.746 217.363 391.419 217.553 392.088 217.789C400.406 220.72 407.579 226.224 412.568 233.504C417.557 240.784 420.106 249.464 419.845 258.289L387.843 268.123L416.801 272.727C414.152 279.245 409.896 284.984 404.431 289.409C398.965 293.833 392.469 296.799 385.549 298.029C378.629 299.258 371.51 298.712 364.858 296.44C358.205 294.169 352.237 290.246 347.509 285.039C347.803 286.025 348.098 287.009 348.395 287.992C348.983 289.945 349.566 291.888 350.126 293.811C357.746 320.025 354.466 340.646 340.89 351.872L333.524 342.944C346.737 332.016 342.637 309.498 339.02 297.046C338.47 295.157 337.896 293.249 337.319 291.33C332.356 274.823 326.73 256.113 334.016 238.919C344.998 213.005 376.649 207.579 402.08 203.22Z" fill="white"/>
<path d="M392.701 355.235H168.48C161.127 355.235 154.075 352.31 148.876 347.105C143.677 341.899 140.756 334.839 140.756 327.478V224.629C140.756 223.136 141.06 221.658 141.649 220.286C142.238 218.914 143.1 217.676 144.183 216.649L262.998 103.889C267.748 99.3809 274.045 96.8679 280.59 96.8679C287.136 96.8679 293.432 99.3809 298.182 103.889L411.466 211.4C414.296 214.085 416.55 217.32 418.09 220.906C419.63 224.493 420.424 228.356 420.424 232.26V327.478C420.424 331.123 419.707 334.732 418.314 338.1C416.921 341.467 414.879 344.527 412.304 347.105C409.73 349.682 406.674 351.727 403.31 353.122C399.946 354.517 396.341 355.235 392.701 355.235Z" fill="#3F3D56"/>
<path opacity="0.1" d="M140.756 226.318H418.094V338.474C418.094 342.919 416.33 347.182 413.191 350.325C410.051 353.469 405.793 355.235 401.353 355.235H157.496C153.056 355.235 148.798 353.469 145.659 350.325C142.519 347.182 140.756 342.919 140.756 338.474V226.318Z" fill="black"/>
<path d="M368.173 137.943H192.425C184.001 137.943 177.171 144.781 177.171 153.216V329.171C177.171 337.605 184.001 344.443 192.425 344.443H368.173C376.597 344.443 383.427 337.605 383.427 329.171V153.216C383.427 144.781 376.597 137.943 368.173 137.943Z" fill="#6C63FF"/>
<path opacity="0.1" d="M383.427 230.956V344.443H177.171V230.956L280.299 280.86L383.427 230.956Z" fill="black"/>
<path d="M280.299 287.276L148.159 223.333C147.342 222.938 146.438 222.756 145.531 222.806C144.625 222.856 143.746 223.136 142.977 223.619C142.208 224.102 141.574 224.773 141.135 225.568C140.695 226.363 140.465 227.257 140.465 228.166V338.182C140.465 340.383 140.898 342.563 141.739 344.596C142.58 346.63 143.814 348.477 145.368 350.034C146.923 351.59 148.768 352.825 150.799 353.667C152.83 354.509 155.007 354.943 157.206 354.943H403.393C405.592 354.943 407.768 354.509 409.799 353.667C411.831 352.825 413.676 351.59 415.231 350.034C416.785 348.477 418.018 346.63 418.859 344.596C419.701 342.563 420.134 340.383 420.134 338.182V230.051C420.134 228.942 419.853 227.851 419.316 226.88C418.78 225.91 418.007 225.091 417.068 224.502C416.13 223.913 415.057 223.572 413.951 223.511C412.845 223.45 411.742 223.671 410.744 224.153L280.299 287.276Z" fill="#3F3D56"/>
<path d="M252.623 156.902H194.942V165.068H252.623V156.902Z" fill="#F2F2F2"/>
<path d="M361.578 186.652H190.281V191.318H361.578V186.652Z" fill="#F2F2F2"/>
<path d="M361.578 202.401H190.281V207.068H361.578V202.401Z" fill="#F2F2F2"/>
<path d="M361.578 218.151H190.281V222.818H361.578V218.151Z" fill="#F2F2F2"/>
<path d="M35.8801 354.943H515.978" stroke="#3F3D56" stroke-miterlimit="10"/>
<path d="M0.365479 283.112C0.365479 317.506 21.9166 345.336 48.5497 345.336L0.365479 283.112Z" fill="#46455B"/>
<path d="M48.5498 345.336C48.5498 310.557 72.5996 282.413 102.321 282.413L48.5498 345.336Z" fill="#6C63FF"/>
<path d="M17.8235 286.23C17.8235 318.9 31.5663 345.336 48.5497 345.336L17.8235 286.23Z" fill="#6C63FF"/>
<path d="M48.5498 345.336C48.5498 300.895 76.3477 264.934 110.7 264.934L48.5498 345.336Z" fill="#46455B"/>
<path d="M38.4131 345.775C38.4131 345.775 45.2464 345.564 47.3058 344.096C49.3652 342.628 57.8172 340.875 58.328 343.229C58.8389 345.584 68.5973 354.94 60.8825 355.003C53.1677 355.065 42.9567 353.8 40.9013 352.546C38.8459 351.293 38.4131 345.775 38.4131 345.775Z" fill="#A8A8A8"/>
<path opacity="0.2" d="M61.0202 354.183C53.3054 354.245 43.0944 352.98 41.039 351.727C39.4737 350.772 38.8499 347.346 38.6412 345.766C38.4967 345.772 38.4131 345.775 38.4131 345.775C38.4131 345.775 38.8459 351.293 40.9013 352.546C42.9568 353.8 53.1677 355.065 60.8825 355.003C63.1094 354.985 63.8787 354.192 63.8364 353.017C63.5271 353.727 62.6777 354.17 61.0202 354.183Z" fill="black"/>
<path d="M419.702 94.9395C419.351 98.063 416.972 100.579 416.09 103.596C414.763 108.136 417.058 113.008 420.197 116.544C422.729 119.367 425.797 121.659 429.22 123.287C432.644 124.914 436.357 125.846 440.143 126.026C441.255 126.124 442.376 126.002 443.441 125.666C444.392 125.283 445.248 124.697 445.95 123.95C448.314 121.573 449.583 118.28 450.088 114.965C450.594 111.649 450.397 108.272 450.2 104.924C450.201 104.232 450.075 103.545 449.829 102.898C449.507 102.282 449.064 101.737 448.527 101.296C446.825 99.7327 444.95 98.3693 442.94 97.232C442.031 96.8242 441.229 96.2101 440.598 95.4384C440.218 94.7772 439.972 94.0474 439.875 93.2909L439.257 90.1416C439.147 89.234 438.838 88.3621 438.351 87.5886C437.26 86.1159 435.174 85.9155 433.345 85.8436L426.641 85.5803C424.556 85.4984 421.809 84.8998 419.773 85.3098C417.872 85.6926 418.504 87.4463 418.849 89.0431C419.35 90.971 419.636 92.9486 419.702 94.9395Z" fill="#A0616A"/>
<path opacity="0.1" d="M419.702 94.9395C419.351 98.063 416.972 100.579 416.09 103.596C414.763 108.136 417.058 113.008 420.197 116.544C422.729 119.367 425.797 121.659 429.22 123.287C432.644 124.914 436.357 125.846 440.143 126.026C441.255 126.124 442.376 126.002 443.441 125.666C444.392 125.283 445.248 124.697 445.95 123.95C448.314 121.573 449.583 118.28 450.088 114.965C450.594 111.649 450.397 108.272 450.2 104.924C450.201 104.232 450.075 103.545 449.829 102.898C449.507 102.282 449.064 101.737 448.527 101.296C446.825 99.7327 444.95 98.3693 442.94 97.232C442.031 96.8242 441.229 96.2101 440.598 95.4384C440.218 94.7772 439.972 94.0474 439.875 93.2909L439.257 90.1416C439.147 89.234 438.838 88.3621 438.351 87.5886C437.26 86.1159 435.174 85.9155 433.345 85.8436L426.641 85.5803C424.556 85.4984 421.809 84.8998 419.773 85.3098C417.872 85.6926 418.504 87.4463 418.849 89.0431C419.35 90.971 419.636 92.9486 419.702 94.9395Z" fill="black"/>
<path d="M462.344 235.529C461.394 245.954 460.445 256.378 459.495 266.8C458.751 275.002 457.994 283.238 456.536 291.334C456.032 294.124 455.442 296.9 454.742 299.652C452.794 307.292 449.969 314.759 449.058 322.591C449.029 322.817 449.005 323.048 448.981 323.278C448.879 325.01 448.552 326.721 448.007 328.368C447.552 329.564 446.851 330.654 446.357 331.836C445.374 334.198 445.245 336.811 445.125 339.37C441.666 337.423 437.88 336.127 433.954 335.548C432.059 335.264 429.949 335.063 428.659 333.646C427.229 332.08 427.387 329.684 427.627 327.581C428.38 321.05 429.132 314.522 429.882 307.998C430.126 305.191 430.603 302.409 431.306 299.68C431.565 298.773 431.877 297.88 432.193 296.987C432.63 295.757 433.071 294.528 433.402 293.265C433.879 291.224 434.212 289.153 434.4 287.065C435.172 280.496 436.103 273.941 436.918 267.377L436.961 267.031C438.184 257.081 439.115 247.083 438.846 237.061C438.808 235.577 438.745 234.093 438.649 232.604C438.515 230.448 438.319 229.305 440.103 227.956C442.074 226.467 444.669 225.425 446.923 224.45C448.137 223.922 461.5 219.173 461.812 220.215C462.438 222.438 462.768 224.734 462.79 227.044C462.8 229.878 462.651 232.711 462.344 235.529Z" fill="#605D82"/>
<path opacity="0.1" d="M456.536 291.334C456.032 294.124 455.442 296.9 454.742 299.652C452.795 307.292 449.97 314.759 449.058 322.591C449.029 322.817 449.005 323.048 448.981 323.278C443.024 314.759 438.007 305.597 432.194 296.986C432.63 295.757 433.072 294.528 433.403 293.265C433.879 291.224 434.213 289.153 434.4 287.065C435.172 280.496 436.103 273.941 436.918 267.377L436.962 267.031C437.303 268.424 437.79 269.778 438.415 271.069C442.319 279.012 451.596 283.027 456.133 290.628C456.272 290.864 456.406 291.099 456.536 291.334Z" fill="black"/>
<path d="M408.197 221.492C408.394 227.863 409.412 234.176 410.429 240.467L412.526 253.449C413.674 260.553 414.869 267.803 418.227 274.166C420.739 278.927 424.358 282.989 427.633 287.259C435.682 297.758 441.729 309.651 449.362 320.458C451.58 323.599 454.751 326.996 458.538 326.34C461.023 325.91 462.828 323.838 464.781 322.241C467.084 320.359 469.859 318.981 471.671 316.621C473.483 314.261 473.838 310.338 471.383 308.658C470.495 308.165 469.552 307.779 468.574 307.507C464.768 306.058 462.305 302.337 460.738 298.575C459.17 294.813 458.221 290.768 456.132 287.269C451.595 279.667 442.318 275.653 438.412 267.707C436.225 263.257 436.017 258.128 435.85 253.171L435.423 240.534C435.377 239.153 435.34 237.715 435.901 236.452C437.395 233.088 441.905 232.775 445.557 232.349C449.702 231.862 453.718 230.594 457.391 228.611C459.494 227.474 461.55 226.024 462.675 223.912C463.701 221.986 463.843 219.726 463.964 217.546L465.228 194.645C465.337 192.675 465.436 190.638 464.742 188.791C463.001 184.153 457.151 182.638 452.208 182.859C443.008 183.271 434.515 187.233 425.84 189.909C423.692 190.587 421.51 191.157 419.304 191.615C417.358 192.007 415.002 191.844 413.145 192.471C409.843 193.586 409.927 200.815 409.458 203.814C408.491 209.655 408.069 215.573 408.197 221.492Z" fill="#605D82"/>
<path d="M457.289 327.3C458.1 328.12 458.365 329.32 458.576 330.453C459.748 336.744 460.358 343.126 460.398 349.524C460.343 350.121 460.463 350.721 460.741 351.252C460.969 351.569 461.279 351.818 461.637 351.973C463.981 353.092 466.703 351.532 468.657 349.819C472.278 346.642 475.343 342.379 475.549 337.563C475.511 336.322 475.555 335.08 475.679 333.845C475.997 332.032 477.055 330.452 477.986 328.865C479.572 326.164 480.851 323.293 481.8 320.307C482.156 319.185 482.393 317.772 481.515 316.989C481.204 316.745 480.85 316.561 480.471 316.446L469.879 312.509C468.962 312.167 466.678 318.041 466.315 318.683C465.428 320.254 464.547 321.146 462.768 321.508C460.952 321.878 458.79 321.347 457.096 322.254C454.23 323.789 455.666 325.662 457.289 327.3Z" fill="#535070"/>
<path d="M440.945 330.925C440.748 330.533 440.474 330.185 440.139 329.902C439.648 329.591 439.091 329.401 438.513 329.349C436.496 329.006 434.106 328.78 432.714 330.281C431.41 331.688 431.634 333.979 430.543 335.558C430.198 336.058 429.73 336.47 429.431 336.999C429.059 337.807 428.891 338.694 428.942 339.582C428.886 342.029 428.83 344.481 428.999 346.923C429.14 348.969 429.485 351.113 430.763 352.717C432.815 355.29 436.515 355.66 439.799 355.827L442.459 355.962C443.191 356.051 443.934 355.983 444.639 355.762C445.074 355.56 445.465 355.273 445.788 354.917C446.111 354.561 446.36 354.144 446.519 353.691C447.903 350.245 445.711 346.533 444.36 343.074C442.808 339.099 443.086 334.684 440.945 330.925Z" fill="#535070"/>
<path d="M418.931 77.34C418.899 76.9908 418.95 76.6387 419.081 76.3133C419.47 75.6236 420.488 75.8113 421.255 76.005C424.341 76.784 427.593 76.0789 430.77 76.2609C433.948 76.4428 437.527 78.0332 438.166 81.1548C440.472 79.5178 442.46 77.4726 444.032 75.12C444.914 73.7988 445.683 72.2854 445.563 70.7009C445.39 68.4154 443.474 66.7061 441.701 65.2567L436.414 60.9359C435.721 60.2975 434.919 59.7874 434.047 59.4293C432.827 59.0116 431.495 59.2106 430.205 59.2115C426.357 59.2139 422.254 57.4606 418.832 59.2219C417.402 59.9577 416.326 61.2185 415.289 62.4479L410.571 68.0397C410.215 68.3961 409.956 68.8365 409.816 69.3202C409.682 70.0027 410.032 70.6763 410.154 71.3611C410.377 72.6103 409.84 73.9436 410.253 75.1432C410.939 77.1348 413.354 77.4167 414.831 78.5584C415.381 78.984 416.244 80.4261 416.899 80.4085C418.082 80.3767 418.9 78.2603 418.931 77.34Z" fill="#3F3D56"/>
<path d="M426.937 93.8229C435.281 93.8229 442.046 87.0504 442.046 78.6962C442.046 70.3419 435.281 63.5695 426.937 63.5695C418.592 63.5695 411.828 70.3419 411.828 78.6962C411.828 87.0504 418.592 93.8229 426.937 93.8229Z" fill="#A0616A"/>
<path d="M430.475 111.801C429.963 110.331 428.996 109.063 427.714 108.18C426.433 107.297 424.904 106.846 423.35 106.892C422.905 106.975 422.446 106.917 422.036 106.726C421.804 106.547 421.618 106.315 421.495 106.049C420.577 104.395 419.838 102.647 419.292 100.835C419.051 100.035 418.722 99.0907 417.913 98.8825C417.578 98.8387 417.237 98.8867 416.928 99.0217C416.618 99.1566 416.35 99.3732 416.154 99.6485C415.77 100.202 415.35 100.731 414.897 101.23C412.997 102.931 409.628 101.381 407.612 102.941C407.282 103.196 407.01 103.523 406.664 103.755C406.318 103.963 405.945 104.124 405.555 104.231C401.66 105.504 397.842 107.001 394.12 108.715C395.461 116.804 396.836 125.034 399.981 132.605C401.477 136.208 403.173 139.737 404.372 143.45C407.027 151.677 407.145 160.48 407.174 169.126C407.195 175.043 407.165 181.087 405.253 186.686C404.739 187.923 404.376 189.218 404.173 190.543C404.058 191.877 404.446 193.349 405.526 194.139C406.152 194.549 406.868 194.801 407.612 194.873C410.926 195.36 414.266 194.477 417.528 193.72C426.273 191.693 435.191 190.533 444.092 189.375L459.008 187.436C460.077 187.364 461.123 187.093 462.094 186.638C464.823 185.142 465.082 181.031 463.387 178.419C462.575 177.166 461.428 176.139 460.745 174.811C460.063 173.483 460.005 171.626 461.18 170.706C463.571 168.835 462.858 165.364 462.972 162.328C463.291 153.839 463.247 145.347 462.842 136.851C462.723 135.093 462.694 133.329 462.758 131.567C463.023 128.582 463.574 125.63 464.403 122.75L468.935 104.884C467.751 103.011 465.484 101.823 463.337 101.283C461.189 100.743 458.953 100.585 456.838 99.9285C452.505 98.5843 448.648 95.1732 444.123 95.4911C443.781 95.4972 443.444 95.5795 443.137 95.732C442.117 96.3108 442.279 97.7832 442.213 98.9556C442.069 101.55 440.163 103.718 438.059 105.238C435.954 106.758 433.551 107.866 431.618 109.6C431.276 109.858 430.995 110.19 430.797 110.571C430.6 110.952 430.49 111.372 430.475 111.801Z" fill="#3F3D56"/>
<path d="M370.609 128.748C369.607 129.399 368.542 129.947 367.431 130.385C366.343 130.709 365.314 131.209 364.387 131.864C363.959 132.234 363.601 132.678 363.328 133.174C362.817 134.082 362.558 135.111 362.579 136.153C362.6 137.195 362.901 138.213 363.448 139.099C363.996 139.985 364.772 140.708 365.694 141.192C366.617 141.676 367.652 141.903 368.692 141.85C370.074 141.695 371.417 141.294 372.658 140.666L383.314 136.043C385.118 135.26 387.066 134.343 387.919 132.57C388.018 132.405 388.055 132.209 388.023 132.019C387.937 131.818 387.781 131.654 387.585 131.558C385.181 129.995 383.079 128.011 381.38 125.7C380.943 125.106 380.408 123.702 379.79 123.346C377.534 122.046 372.414 127.575 370.609 128.748Z" fill="#A0616A"/>
<path d="M484.532 124.954L488.461 129.448C489.305 130.412 490.149 131.378 490.918 132.403C492.806 135.008 494.32 137.865 495.418 140.89C496.272 143.134 496.98 145.524 496.682 147.906C496.484 149.127 496.154 150.324 495.699 151.474C494.979 153.687 494.087 155.839 493.03 157.911C492.141 159.486 491.136 160.993 490.025 162.419C486.984 166.455 483.655 170.267 480.066 173.824C478.723 175.155 478.159 177.308 477.575 179.107C476.496 182.426 473.93 185.011 471.449 187.463C470.651 188.306 469.77 189.065 468.818 189.729C467.393 190.648 465.727 191.123 464.031 191.094C463.289 191.099 462.554 190.947 461.875 190.647C460.177 189.84 459.314 187.874 459.137 186C458.979 184.299 459.263 182.587 459.963 181.029C462.217 176.029 468.007 173.863 472.099 170.214C474.499 168.075 476.334 165.388 478.144 162.73C479.373 161.07 480.399 159.269 481.2 157.365C482.114 154.924 481.759 152.034 482.557 149.552C482.895 148.503 483.495 147.556 483.858 146.515C484.22 145.475 484.312 144.24 483.677 143.339C483.198 142.767 482.588 142.32 481.898 142.035C479.284 140.707 476.356 138.997 475.856 136.105C475.656 134.502 476.075 132.882 477.026 131.576C477.974 130.288 479.082 129.126 480.323 128.117C481.466 127.105 483.389 125.966 484.532 124.954Z" fill="#A0616A"/>
<path d="M368.087 135.02C367.393 133.617 366.526 132.186 365.126 131.488C364.447 131.193 363.716 131.039 362.976 131.036C362.236 131.033 361.503 131.181 360.822 131.47C359.465 132.056 358.194 132.825 357.045 133.757L353.658 136.256C352.891 136.76 352.211 137.388 351.648 138.114C351.114 138.995 350.758 139.972 350.601 140.99C350.011 143.313 349.83 145.721 350.068 148.105C350.606 151.929 352.908 155.266 355.442 158.177C357.026 159.995 358.981 161.831 361.39 161.908C362.429 161.942 363.586 161.531 364.018 160.584C364.168 160.209 364.247 159.809 364.253 159.405C364.513 155.14 362.989 150.974 361.212 147.09C360.646 146.073 360.311 144.943 360.232 143.781C360.219 143.585 360.27 143.391 360.377 143.227C360.53 143.067 360.735 142.967 360.955 142.944C363.387 142.462 367.576 144.354 369.282 141.65C370.388 139.897 368.873 136.61 368.087 135.02Z" fill="#A0616A"/>
<path d="M418.139 72.5803C418.106 72.231 418.157 71.879 418.288 71.5535C418.678 70.8639 419.695 71.0515 420.462 71.2453C423.549 72.0242 426.8 71.3191 429.978 71.5011C433.155 71.6831 436.735 73.2734 437.373 76.395C439.68 74.758 441.668 72.7129 443.24 70.3603C444.122 69.039 444.89 67.5256 444.77 65.9411C444.597 63.6556 442.682 61.9464 440.908 60.4969L435.622 56.1762C434.928 55.5378 434.127 55.0276 433.255 54.6695C432.034 54.2519 430.703 54.4509 429.413 54.4517C425.565 54.4542 421.462 52.7008 418.039 54.4622C416.61 55.1979 415.534 56.4588 414.496 57.6882L409.778 63.2799C409.423 63.6363 409.163 64.0768 409.024 64.5604C408.89 65.243 409.24 65.9166 409.362 66.6014C409.585 67.8506 409.047 69.1838 409.46 70.3834C410.146 72.375 412.562 72.6569 414.038 73.7987C414.589 74.2242 415.451 75.6664 416.107 75.6487C417.29 75.617 418.108 73.5005 418.139 72.5803Z" fill="#3F3D56"/>
<path d="M386.049 114.034C385.439 114.428 384.903 114.927 384.467 115.508C383.913 116.347 383.801 117.405 383.325 118.291C382.307 120.185 379.925 120.859 378.439 122.413C378.203 122.627 378.039 122.909 377.97 123.22C377.963 123.641 378.104 124.052 378.369 124.38L385.533 135.657C387.919 135.867 390.207 134.371 392.594 134.57C393.485 134.644 394.397 134.952 395.251 134.688C395.863 134.417 396.436 134.066 396.957 133.644C398.38 132.743 400.277 132.638 401.471 131.449C402.617 130.308 402.764 128.522 402.75 126.903C402.769 125.498 402.626 124.095 402.324 122.722C401.269 118.394 397.963 115.072 395.89 111.238C394.881 109.371 394.332 108.279 392.196 109.56C390.049 110.849 388.069 112.555 386.049 114.034Z" fill="#3F3D56"/>
<path d="M473.061 108.332C474.408 109.207 475.622 110.272 476.666 111.493C477.757 112.902 478.375 114.626 479.424 116.068C480.44 117.465 481.824 118.547 482.976 119.833C484.724 121.784 485.909 124.165 487.071 126.513C484.231 130.221 481.134 133.726 477.804 137C477.433 137.437 476.945 137.758 476.396 137.926C476.024 137.965 475.647 137.912 475.3 137.77C474.953 137.629 474.646 137.403 474.407 137.114C473.891 136.572 473.525 135.904 473.032 135.341C471.868 134.138 470.316 133.387 468.652 133.22C467.002 133.06 465.342 133.037 463.689 133.151C463.326 133.192 462.959 133.13 462.629 132.973C462.384 132.804 462.185 132.575 462.051 132.309C460.111 129.004 460.735 124.855 461.419 121.084L462.99 112.43C463.217 110.777 463.656 109.16 464.297 107.62C464.891 106.347 466.222 104.189 467.857 104.57C469.506 104.954 471.674 107.333 473.061 108.332Z" fill="#3F3D56"/>
<path d="M185.62 165.155C198.813 165.155 209.508 154.428 209.508 141.195C209.508 127.962 198.813 117.235 185.62 117.235C172.427 117.235 161.731 127.962 161.731 141.195C161.731 154.428 172.427 165.155 185.62 165.155Z" fill="white"/>
<path d="M185.62 113.152C179.973 113.152 174.453 114.828 169.758 117.969C165.063 121.11 161.404 125.574 159.243 130.797C157.082 136.02 156.517 141.767 157.619 147.311C158.72 152.856 161.439 157.949 165.432 161.947C169.425 165.944 174.512 168.666 180.05 169.769C185.588 170.872 191.328 170.306 196.545 168.143C201.762 165.979 206.221 162.316 209.358 157.615C212.495 152.915 214.169 147.388 214.169 141.735C214.147 134.161 211.132 126.904 205.783 121.548C200.433 116.193 193.185 113.174 185.62 113.152ZM179.759 156.975L165.127 142.326L169.231 138.217L179.772 148.771L202.022 126.495L206.126 130.604L179.759 156.975L179.759 156.975Z" fill="#57B894"/>
</svg>
