<svg width="600" height="410" viewBox="0 0 600 410" fill="none" xmlns="http://www.w3.org/2000/svg">
<path d="M241.406 113.281H249.219V82.0312H241.406C232.777 82.0312 225.781 89.0273 225.781 97.6562C225.781 106.285 232.777 113.281 241.406 113.281Z" fill="#E0C494"/>
<path d="M397.656 82.0312H389.844V113.281H397.656C406.285 113.281 413.281 106.285 413.281 97.6562C413.281 89.0273 406.285 82.0312 397.656 82.0312Z" fill="#E0C494"/>
<path d="M417.188 213.18C412.352 209.68 406.82 207.113 400.82 205.859L363.203 197.93C362.188 197.734 361.25 197.422 360.312 197.031H360.273H278.789C277.852 197.422 276.875 197.734 275.859 197.93L238.242 205.859C223.281 208.984 211.094 219.844 206.25 234.375V242.188H417.188V213.18Z" fill="#03045E"/>
<path d="M360.273 197.031L319.527 218.75L278.789 197.031C284.449 194.566 288.277 188.98 288.277 182.617V172.344H350.777V182.617C350.777 188.98 354.609 194.566 360.273 197.031Z" fill="#F2DAAE"/>
<path d="M288.281 180.953C297.855 185.141 308.41 187.5 319.531 187.5C330.652 187.5 341.207 185.141 350.781 180.953V172.344H288.281V180.953Z" fill="#E0C494"/>
<path d="M393.75 218.75H342.969V234.375H393.75V218.75Z" fill="white"/>
<path d="M350.781 172.344C341.367 177.031 330.781 179.688 319.531 179.688C308.281 179.688 297.695 177.031 288.281 172.344C267.344 161.953 252.344 141.445 249.648 117.188H389.414C386.719 141.445 371.719 161.953 350.781 172.344Z" fill="#03045E"/>
<path d="M389.844 78.125V82.0312C376.914 82.0312 366.406 71.5234 366.406 58.5938V54.6875H257.852C256.562 54.6875 255.234 54.5703 253.984 54.375C253.789 54.3359 253.594 54.3359 253.438 54.2969C243.516 52.5 235.273 44.8438 233.828 34.6484C231.953 21.2891 241.367 9.72656 253.906 8.04688C255.586 12.4609 259.844 15.625 264.844 15.625H327.344C361.875 15.625 389.844 43.5938 389.844 78.125Z" fill="#EFBC2E"/>
<path d="M389.844 82.0313V109.375C389.844 112.031 389.688 114.609 389.414 117.188H249.648C249.375 114.609 249.219 112.031 249.219 109.375V78.125C249.219 69.7266 250.742 61.7578 253.437 54.2969C253.594 54.3359 253.789 54.3359 253.984 54.375C255.234 54.5703 256.523 54.6875 257.852 54.6875H366.406V58.5938C366.406 71.5234 376.914 82.0313 389.844 82.0313Z" fill="#F2DAAE"/>
<path d="M300 97.6562C300 101.969 296.5 105.469 292.188 105.469C287.875 105.469 284.375 101.969 284.375 97.6562C284.375 93.3438 287.875 89.8438 292.188 89.8438C296.5 89.8438 300 93.3438 300 97.6562Z" fill="#3A4249"/>
<path d="M354.688 97.6562C354.688 101.969 351.188 105.469 346.875 105.469C342.562 105.469 339.062 101.969 339.062 97.6562C339.062 93.3438 342.562 89.8438 346.875 89.8438C351.188 89.8438 354.688 93.3438 354.688 97.6562Z" fill="#3A4249"/>
<path d="M319.531 218.75L315.625 216.668V242.187H323.438V216.668L319.531 218.75Z" fill="white"/>
<path d="M186.719 144.531V242.188H249.219V207.031L264.844 179.688V167.969C264.844 163.656 261.344 160.156 257.031 160.156H249.219V105.469C249.219 101.156 245.719 97.6562 241.406 97.6562C237.094 97.6562 233.594 101.156 233.594 105.469V144.531C233.594 140.219 230.094 136.719 225.781 136.719C221.469 136.719 217.969 140.219 217.969 144.531C217.969 140.219 214.469 136.719 210.156 136.719C205.844 136.719 202.344 140.219 202.344 144.531C202.344 140.219 198.844 136.719 194.531 136.719C190.219 136.719 186.719 140.219 186.719 144.531Z" fill="#F2DAAE"/>
<path d="M225.781 191.406C225.781 182.777 232.777 175.781 241.406 175.781H253.125H249.219C240.59 175.781 233.594 168.785 233.594 160.156H257.031C261.344 160.156 264.844 163.656 264.844 167.969V179.688L249.219 207.031H241.406C232.777 207.031 225.781 200.035 225.781 191.406Z" fill="#E0C494"/>
<path d="M225.781 167.969C230.094 167.969 233.594 164.469 233.594 160.156V144.531C233.594 140.219 230.094 136.719 225.781 136.719C221.469 136.719 217.969 140.219 217.969 144.531V160.156C217.969 164.469 221.469 167.969 225.781 167.969Z" fill="#E0C494"/>
<path d="M210.156 167.969C214.469 167.969 217.969 164.469 217.969 160.156V144.531C217.969 140.219 214.469 136.719 210.156 136.719C205.844 136.719 202.344 140.219 202.344 144.531V160.156C202.344 164.469 205.844 167.969 210.156 167.969Z" fill="#E0C494"/>
<path d="M194.531 167.969C198.844 167.969 202.344 164.469 202.344 160.156V144.531C202.344 140.219 198.844 136.719 194.531 136.719C190.219 136.719 186.719 140.219 186.719 144.531V160.156C186.719 164.469 190.219 167.969 194.531 167.969Z" fill="#E0C494"/>
<path d="M137.951 294.535L143.84 282.406H148.762L140.184 298.578V308H135.719V298.578L127.123 282.406H132.062L137.951 294.535ZM149.166 298.314C149.166 296.451 149.535 294.775 150.273 293.287C151.012 291.787 152.049 290.639 153.385 289.842C154.721 289.033 156.256 288.629 157.99 288.629C160.557 288.629 162.637 289.455 164.23 291.107C165.836 292.76 166.703 294.951 166.832 297.682L166.85 298.684C166.85 300.559 166.486 302.234 165.76 303.711C165.045 305.188 164.014 306.33 162.666 307.139C161.33 307.947 159.783 308.352 158.025 308.352C155.342 308.352 153.191 307.461 151.574 305.68C149.969 303.887 149.166 301.502 149.166 298.525V298.314ZM153.438 298.684C153.438 300.641 153.842 302.176 154.65 303.289C155.459 304.391 156.584 304.941 158.025 304.941C159.467 304.941 160.586 304.379 161.383 303.254C162.191 302.129 162.596 300.482 162.596 298.314C162.596 296.393 162.18 294.869 161.348 293.744C160.527 292.619 159.408 292.057 157.99 292.057C156.596 292.057 155.488 292.613 154.668 293.727C153.848 294.828 153.438 296.48 153.438 298.684ZM181.984 306.137C180.73 307.613 178.949 308.352 176.641 308.352C174.578 308.352 173.014 307.748 171.947 306.541C170.893 305.334 170.365 303.588 170.365 301.303V288.98H174.637V301.25C174.637 303.664 175.639 304.871 177.643 304.871C179.717 304.871 181.117 304.127 181.844 302.639V288.98H186.115V308H182.09L181.984 306.137ZM203.641 291.055C205.035 289.438 206.799 288.629 208.932 288.629C212.986 288.629 215.043 290.943 215.102 295.572V308H210.83V295.73C210.83 294.418 210.543 293.492 209.969 292.953C209.406 292.402 208.574 292.127 207.473 292.127C205.762 292.127 204.484 292.889 203.641 294.412V308H199.369V281H203.641V291.055ZM230.799 308C230.611 307.637 230.447 307.045 230.307 306.225C228.947 307.643 227.283 308.352 225.314 308.352C223.404 308.352 221.846 307.807 220.639 306.717C219.432 305.627 218.828 304.279 218.828 302.674C218.828 300.646 219.578 299.094 221.078 298.016C222.59 296.926 224.746 296.381 227.547 296.381H230.166V295.133C230.166 294.148 229.891 293.363 229.34 292.777C228.789 292.18 227.951 291.881 226.826 291.881C225.854 291.881 225.057 292.127 224.436 292.619C223.814 293.1 223.504 293.715 223.504 294.465H219.232C219.232 293.422 219.578 292.449 220.27 291.547C220.961 290.633 221.898 289.918 223.082 289.402C224.277 288.887 225.607 288.629 227.072 288.629C229.299 288.629 231.074 289.191 232.398 290.316C233.723 291.43 234.402 293 234.438 295.027V303.605C234.438 305.316 234.678 306.682 235.158 307.701V308H230.799ZM226.105 304.924C226.949 304.924 227.74 304.719 228.479 304.309C229.229 303.898 229.791 303.348 230.166 302.656V299.07H227.863C226.281 299.07 225.092 299.346 224.295 299.896C223.498 300.447 223.1 301.227 223.1 302.234C223.1 303.055 223.369 303.711 223.908 304.203C224.459 304.684 225.191 304.924 226.105 304.924ZM245.336 302.586L249.361 288.98H253.773L247.182 308H243.473L236.828 288.98H241.258L245.336 302.586ZM264.584 308.352C261.877 308.352 259.68 307.502 257.992 305.803C256.316 304.092 255.479 301.818 255.479 298.982V298.455C255.479 296.557 255.842 294.863 256.568 293.375C257.307 291.875 258.338 290.709 259.662 289.877C260.986 289.045 262.463 288.629 264.092 288.629C266.682 288.629 268.68 289.455 270.086 291.107C271.504 292.76 272.213 295.098 272.213 298.121V299.844H259.785C259.914 301.414 260.436 302.656 261.35 303.57C262.275 304.484 263.436 304.941 264.83 304.941C266.787 304.941 268.381 304.15 269.611 302.568L271.914 304.766C271.152 305.902 270.133 306.787 268.855 307.42C267.59 308.041 266.166 308.352 264.584 308.352ZM264.074 292.057C262.902 292.057 261.953 292.467 261.227 293.287C260.512 294.107 260.055 295.25 259.855 296.715H267.994V296.398C267.9 294.969 267.52 293.891 266.852 293.164C266.184 292.426 265.258 292.057 264.074 292.057ZM288.473 288.98L288.596 291.178C290.002 289.479 291.848 288.629 294.133 288.629C298.094 288.629 300.109 290.896 300.18 295.432V308H295.908V295.678C295.908 294.471 295.645 293.58 295.117 293.006C294.602 292.42 293.752 292.127 292.568 292.127C290.846 292.127 289.562 292.906 288.719 294.465V308H284.447V288.98H288.473ZM303.748 298.314C303.748 296.451 304.117 294.775 304.855 293.287C305.594 291.787 306.631 290.639 307.967 289.842C309.303 289.033 310.838 288.629 312.572 288.629C315.139 288.629 317.219 289.455 318.812 291.107C320.418 292.76 321.285 294.951 321.414 297.682L321.432 298.684C321.432 300.559 321.068 302.234 320.342 303.711C319.627 305.188 318.596 306.33 317.248 307.139C315.912 307.947 314.365 308.352 312.607 308.352C309.924 308.352 307.773 307.461 306.156 305.68C304.551 303.887 303.748 301.502 303.748 298.525V298.314ZM308.02 298.684C308.02 300.641 308.424 302.176 309.232 303.289C310.041 304.391 311.166 304.941 312.607 304.941C314.049 304.941 315.168 304.379 315.965 303.254C316.773 302.129 317.178 300.482 317.178 298.314C317.178 296.393 316.762 294.869 315.93 293.744C315.109 292.619 313.99 292.057 312.572 292.057C311.178 292.057 310.07 292.613 309.25 293.727C308.43 294.828 308.02 296.48 308.02 298.684ZM342.385 308.352C339.678 308.352 337.48 307.502 335.793 305.803C334.117 304.092 333.279 301.818 333.279 298.982V298.455C333.279 296.557 333.643 294.863 334.369 293.375C335.107 291.875 336.139 290.709 337.463 289.877C338.787 289.045 340.264 288.629 341.893 288.629C344.482 288.629 346.48 289.455 347.887 291.107C349.305 292.76 350.014 295.098 350.014 298.121V299.844H337.586C337.715 301.414 338.236 302.656 339.15 303.57C340.076 304.484 341.236 304.941 342.631 304.941C344.588 304.941 346.182 304.15 347.412 302.568L349.715 304.766C348.953 305.902 347.934 306.787 346.656 307.42C345.391 308.041 343.967 308.352 342.385 308.352ZM341.875 292.057C340.703 292.057 339.754 292.467 339.027 293.287C338.312 294.107 337.855 295.25 337.656 296.715H345.795V296.398C345.701 294.969 345.32 293.891 344.652 293.164C343.984 292.426 343.059 292.057 341.875 292.057ZM357.361 288.98L357.484 290.967C358.82 289.408 360.648 288.629 362.969 288.629C365.512 288.629 367.252 289.602 368.189 291.547C369.572 289.602 371.518 288.629 374.025 288.629C376.123 288.629 377.682 289.209 378.701 290.369C379.732 291.529 380.26 293.24 380.283 295.502V308H376.012V295.625C376.012 294.418 375.748 293.533 375.221 292.971C374.693 292.408 373.82 292.127 372.602 292.127C371.629 292.127 370.832 292.391 370.211 292.918C369.602 293.434 369.174 294.113 368.928 294.957L368.945 308H364.674V295.484C364.615 293.246 363.473 292.127 361.246 292.127C359.535 292.127 358.322 292.824 357.607 294.219V308H353.336V288.98H357.361ZM396.033 308C395.846 307.637 395.682 307.045 395.541 306.225C394.182 307.643 392.518 308.352 390.549 308.352C388.639 308.352 387.08 307.807 385.873 306.717C384.666 305.627 384.062 304.279 384.062 302.674C384.062 300.646 384.812 299.094 386.312 298.016C387.824 296.926 389.98 296.381 392.781 296.381H395.4V295.133C395.4 294.148 395.125 293.363 394.574 292.777C394.023 292.18 393.186 291.881 392.061 291.881C391.088 291.881 390.291 292.127 389.67 292.619C389.049 293.1 388.738 293.715 388.738 294.465H384.467C384.467 293.422 384.812 292.449 385.504 291.547C386.195 290.633 387.133 289.918 388.316 289.402C389.512 288.887 390.842 288.629 392.307 288.629C394.533 288.629 396.309 289.191 397.633 290.316C398.957 291.43 399.637 293 399.672 295.027V303.605C399.672 305.316 399.912 306.682 400.393 307.701V308H396.033ZM391.34 304.924C392.184 304.924 392.975 304.719 393.713 304.309C394.463 303.898 395.025 303.348 395.4 302.656V299.07H393.098C391.516 299.07 390.326 299.346 389.529 299.896C388.732 300.447 388.334 301.227 388.334 302.234C388.334 303.055 388.604 303.711 389.143 304.203C389.693 304.684 390.426 304.924 391.34 304.924ZM408.689 308H404.418V288.98H408.689V308ZM404.154 284.041C404.154 283.385 404.359 282.84 404.77 282.406C405.191 281.973 405.789 281.756 406.562 281.756C407.336 281.756 407.934 281.973 408.355 282.406C408.777 282.84 408.988 283.385 408.988 284.041C408.988 284.686 408.777 285.225 408.355 285.658C407.934 286.08 407.336 286.291 406.562 286.291C405.789 286.291 405.191 286.08 404.77 285.658C404.359 285.225 404.154 284.686 404.154 284.041ZM417.9 308H413.629V281H417.9V308ZM433.229 302.832C433.229 302.07 432.912 301.49 432.279 301.092C431.658 300.693 430.621 300.342 429.168 300.037C427.715 299.732 426.502 299.346 425.529 298.877C423.396 297.846 422.33 296.352 422.33 294.395C422.33 292.754 423.021 291.383 424.404 290.281C425.787 289.18 427.545 288.629 429.678 288.629C431.951 288.629 433.785 289.191 435.18 290.316C436.586 291.441 437.289 292.9 437.289 294.693H433.018C433.018 293.873 432.713 293.193 432.104 292.654C431.494 292.104 430.686 291.828 429.678 291.828C428.74 291.828 427.973 292.045 427.375 292.479C426.789 292.912 426.496 293.492 426.496 294.219C426.496 294.875 426.771 295.385 427.322 295.748C427.873 296.111 428.986 296.48 430.662 296.855C432.338 297.219 433.65 297.658 434.6 298.174C435.561 298.678 436.27 299.287 436.727 300.002C437.195 300.717 437.43 301.584 437.43 302.604C437.43 304.314 436.721 305.703 435.303 306.77C433.885 307.824 432.027 308.352 429.73 308.352C428.172 308.352 426.783 308.07 425.564 307.508C424.346 306.945 423.396 306.172 422.717 305.188C422.037 304.203 421.697 303.143 421.697 302.006H425.846C425.904 303.014 426.285 303.793 426.988 304.344C427.691 304.883 428.623 305.152 429.783 305.152C430.908 305.152 431.764 304.941 432.35 304.52C432.936 304.086 433.229 303.523 433.229 302.832ZM456.783 301.883L460.65 288.98H465.203L457.645 310.883C456.484 314.082 454.516 315.682 451.738 315.682C451.117 315.682 450.432 315.576 449.682 315.365V312.061L450.49 312.113C451.568 312.113 452.377 311.914 452.916 311.516C453.467 311.129 453.9 310.473 454.217 309.547L454.832 307.912L448.152 288.98H452.758L456.783 301.883ZM475.803 308.352C473.096 308.352 470.898 307.502 469.211 305.803C467.535 304.092 466.697 301.818 466.697 298.982V298.455C466.697 296.557 467.061 294.863 467.787 293.375C468.525 291.875 469.557 290.709 470.881 289.877C472.205 289.045 473.682 288.629 475.311 288.629C477.9 288.629 479.898 289.455 481.305 291.107C482.723 292.76 483.432 295.098 483.432 298.121V299.844H471.004C471.133 301.414 471.654 302.656 472.568 303.57C473.494 304.484 474.654 304.941 476.049 304.941C478.006 304.941 479.6 304.15 480.83 302.568L483.133 304.766C482.371 305.902 481.352 306.787 480.074 307.42C478.809 308.041 477.385 308.352 475.803 308.352ZM475.293 292.057C474.121 292.057 473.172 292.467 472.445 293.287C471.73 294.107 471.273 295.25 471.074 296.715H479.213V296.398C479.119 294.969 478.738 293.891 478.07 293.164C477.402 292.426 476.477 292.057 475.293 292.057ZM492.115 284.357V288.98H495.473V292.145H492.115V302.762C492.115 303.488 492.256 304.016 492.537 304.344C492.83 304.66 493.346 304.818 494.084 304.818C494.576 304.818 495.074 304.76 495.578 304.643V307.947C494.605 308.217 493.668 308.352 492.766 308.352C489.484 308.352 487.844 306.541 487.844 302.92V292.145H484.715V288.98H487.844V284.357H492.115Z" fill="black"/>
<path d="M26.9062 364H23.9062V341.25H26.9062V364ZM34.6875 347.094L34.7812 349.219C36.0729 347.594 37.7604 346.781 39.8438 346.781C43.4167 346.781 45.2188 348.797 45.25 352.828V364H42.3594V352.812C42.349 351.594 42.0677 350.693 41.5156 350.109C40.974 349.526 40.125 349.234 38.9688 349.234C38.0312 349.234 37.2083 349.484 36.5 349.984C35.7917 350.484 35.2396 351.141 34.8438 351.953V364H31.9531V347.094H34.6875ZM59.4531 359.516C59.4531 358.734 59.1562 358.13 58.5625 357.703C57.9792 357.266 56.9531 356.891 55.4844 356.578C54.026 356.266 52.8646 355.891 52 355.453C51.1458 355.016 50.5104 354.495 50.0938 353.891C49.6875 353.286 49.4844 352.568 49.4844 351.734C49.4844 350.349 50.0677 349.177 51.2344 348.219C52.4115 347.26 53.9115 346.781 55.7344 346.781C57.651 346.781 59.2031 347.276 60.3906 348.266C61.5885 349.255 62.1875 350.521 62.1875 352.062H59.2812C59.2812 351.271 58.9427 350.589 58.2656 350.016C57.599 349.443 56.7552 349.156 55.7344 349.156C54.6823 349.156 53.8594 349.385 53.2656 349.844C52.6719 350.302 52.375 350.901 52.375 351.641C52.375 352.339 52.651 352.865 53.2031 353.219C53.7552 353.573 54.75 353.911 56.1875 354.234C57.6354 354.557 58.8073 354.943 59.7031 355.391C60.599 355.839 61.2604 356.38 61.6875 357.016C62.125 357.641 62.3438 358.406 62.3438 359.312C62.3438 360.823 61.7396 362.036 60.5312 362.953C59.3229 363.859 57.7552 364.312 55.8281 364.312C54.474 364.312 53.276 364.073 52.2344 363.594C51.1927 363.115 50.375 362.448 49.7812 361.594C49.1979 360.729 48.9062 359.797 48.9062 358.797H51.7969C51.849 359.766 52.2344 360.536 52.9531 361.109C53.6823 361.672 54.6406 361.953 55.8281 361.953C56.9219 361.953 57.7969 361.734 58.4531 361.297C59.1198 360.849 59.4531 360.255 59.4531 359.516ZM69.25 364H66.3594V347.094H69.25V364ZM66.125 342.609C66.125 342.141 66.2656 341.745 66.5469 341.422C66.8385 341.099 67.2656 340.938 67.8281 340.938C68.3906 340.938 68.8177 341.099 69.1094 341.422C69.401 341.745 69.5469 342.141 69.5469 342.609C69.5469 343.078 69.401 343.469 69.1094 343.781C68.8177 344.094 68.3906 344.25 67.8281 344.25C67.2656 344.25 66.8385 344.094 66.5469 343.781C66.2656 343.469 66.125 343.078 66.125 342.609ZM73.2031 355.406C73.2031 352.771 73.8125 350.677 75.0312 349.125C76.25 347.562 77.8646 346.781 79.875 346.781C81.9375 346.781 83.5469 347.51 84.7031 348.969L84.8438 347.094H87.4844V363.594C87.4844 365.781 86.8333 367.505 85.5312 368.766C84.2396 370.026 82.5 370.656 80.3125 370.656C79.0938 370.656 77.901 370.396 76.7344 369.875C75.5677 369.354 74.6771 368.641 74.0625 367.734L75.5625 366C76.8021 367.531 78.3177 368.297 80.1094 368.297C81.5156 368.297 82.6094 367.901 83.3906 367.109C84.1823 366.318 84.5781 365.203 84.5781 363.766V362.312C83.4219 363.646 81.8438 364.312 79.8438 364.312C77.8646 364.312 76.2604 363.516 75.0312 361.922C73.8125 360.328 73.2031 358.156 73.2031 355.406ZM76.1094 355.734C76.1094 357.641 76.5 359.141 77.2812 360.234C78.0625 361.318 79.1562 361.859 80.5625 361.859C82.3854 361.859 83.724 361.031 84.5781 359.375V351.656C83.6927 350.042 82.3646 349.234 80.5938 349.234C79.1875 349.234 78.0885 349.781 77.2969 350.875C76.5052 351.969 76.1094 353.589 76.1094 355.734ZM94.75 349.141C96.0312 347.568 97.6979 346.781 99.75 346.781C103.323 346.781 105.125 348.797 105.156 352.828V364H102.266V352.812C102.255 351.594 101.974 350.693 101.422 350.109C100.88 349.526 100.031 349.234 98.875 349.234C97.9375 349.234 97.1146 349.484 96.4062 349.984C95.6979 350.484 95.1458 351.141 94.75 351.953V364H91.8594V340H94.75V349.141ZM113.406 343V347.094H116.562V349.328H113.406V359.812C113.406 360.49 113.547 361 113.828 361.344C114.109 361.677 114.589 361.844 115.266 361.844C115.599 361.844 116.057 361.781 116.641 361.656V364C115.88 364.208 115.141 364.312 114.422 364.312C113.13 364.312 112.156 363.922 111.5 363.141C110.844 362.359 110.516 361.25 110.516 359.812V349.328H107.438V347.094H110.516V343H113.406ZM129.797 359.516C129.797 358.734 129.5 358.13 128.906 357.703C128.323 357.266 127.297 356.891 125.828 356.578C124.37 356.266 123.208 355.891 122.344 355.453C121.49 355.016 120.854 354.495 120.438 353.891C120.031 353.286 119.828 352.568 119.828 351.734C119.828 350.349 120.411 349.177 121.578 348.219C122.755 347.26 124.255 346.781 126.078 346.781C127.995 346.781 129.547 347.276 130.734 348.266C131.932 349.255 132.531 350.521 132.531 352.062H129.625C129.625 351.271 129.286 350.589 128.609 350.016C127.943 349.443 127.099 349.156 126.078 349.156C125.026 349.156 124.203 349.385 123.609 349.844C123.016 350.302 122.719 350.901 122.719 351.641C122.719 352.339 122.995 352.865 123.547 353.219C124.099 353.573 125.094 353.911 126.531 354.234C127.979 354.557 129.151 354.943 130.047 355.391C130.943 355.839 131.604 356.38 132.031 357.016C132.469 357.641 132.688 358.406 132.688 359.312C132.688 360.823 132.083 362.036 130.875 362.953C129.667 363.859 128.099 364.312 126.172 364.312C124.818 364.312 123.62 364.073 122.578 363.594C121.536 363.115 120.719 362.448 120.125 361.594C119.542 360.729 119.25 359.797 119.25 358.797H122.141C122.193 359.766 122.578 360.536 123.297 361.109C124.026 361.672 124.984 361.953 126.172 361.953C127.266 361.953 128.141 361.734 128.797 361.297C129.464 360.849 129.797 360.255 129.797 359.516ZM159.359 360.016L162.609 347.094H165.5L160.578 364H158.234L154.125 351.188L150.125 364H147.781L142.875 347.094H145.75L149.078 359.75L153.016 347.094H155.344L159.359 360.016ZM171.594 364H168.703V347.094H171.594V364ZM168.469 342.609C168.469 342.141 168.609 341.745 168.891 341.422C169.182 341.099 169.609 340.938 170.172 340.938C170.734 340.938 171.161 341.099 171.453 341.422C171.745 341.745 171.891 342.141 171.891 342.609C171.891 343.078 171.745 343.469 171.453 343.781C171.161 344.094 170.734 344.25 170.172 344.25C169.609 344.25 169.182 344.094 168.891 343.781C168.609 343.469 168.469 343.078 168.469 342.609ZM179.375 364H176.484V340H179.375V364ZM187.156 364H184.266V340H187.156V364ZM214.047 355.734C214.047 358.318 213.453 360.396 212.266 361.969C211.078 363.531 209.484 364.312 207.484 364.312C205.349 364.312 203.698 363.557 202.531 362.047L202.391 364H199.734V340H202.625V348.953C203.792 347.505 205.401 346.781 207.453 346.781C209.505 346.781 211.115 347.557 212.281 349.109C213.458 350.661 214.047 352.786 214.047 355.484V355.734ZM211.156 355.406C211.156 353.438 210.776 351.917 210.016 350.844C209.255 349.771 208.161 349.234 206.734 349.234C204.828 349.234 203.458 350.12 202.625 351.891V359.203C203.51 360.974 204.891 361.859 206.766 361.859C208.151 361.859 209.229 361.323 210 360.25C210.771 359.177 211.156 357.562 211.156 355.406ZM224.719 364.312C222.427 364.312 220.562 363.562 219.125 362.062C217.688 360.552 216.969 358.536 216.969 356.016V355.484C216.969 353.807 217.286 352.312 217.922 351C218.568 349.677 219.464 348.646 220.609 347.906C221.766 347.156 223.016 346.781 224.359 346.781C226.557 346.781 228.266 347.505 229.484 348.953C230.703 350.401 231.312 352.474 231.312 355.172V356.375H219.859C219.901 358.042 220.385 359.391 221.312 360.422C222.25 361.443 223.438 361.953 224.875 361.953C225.896 361.953 226.76 361.745 227.469 361.328C228.177 360.911 228.797 360.359 229.328 359.672L231.094 361.047C229.677 363.224 227.552 364.312 224.719 364.312ZM224.359 349.156C223.193 349.156 222.214 349.583 221.422 350.438C220.63 351.281 220.141 352.469 219.953 354H228.422V353.781C228.339 352.312 227.943 351.177 227.234 350.375C226.526 349.562 225.568 349.156 224.359 349.156ZM253.047 364C252.88 363.667 252.745 363.073 252.641 362.219C251.297 363.615 249.693 364.312 247.828 364.312C246.161 364.312 244.792 363.844 243.719 362.906C242.656 361.958 242.125 360.76 242.125 359.312C242.125 357.552 242.792 356.188 244.125 355.219C245.469 354.24 247.354 353.75 249.781 353.75H252.594V352.422C252.594 351.411 252.292 350.609 251.688 350.016C251.083 349.411 250.193 349.109 249.016 349.109C247.984 349.109 247.12 349.37 246.422 349.891C245.724 350.411 245.375 351.042 245.375 351.781H242.469C242.469 350.938 242.766 350.125 243.359 349.344C243.964 348.552 244.776 347.927 245.797 347.469C246.828 347.01 247.958 346.781 249.188 346.781C251.135 346.781 252.661 347.271 253.766 348.25C254.87 349.219 255.443 350.557 255.484 352.266V360.047C255.484 361.599 255.682 362.833 256.078 363.75V364H253.047ZM248.25 361.797C249.156 361.797 250.016 361.562 250.828 361.094C251.641 360.625 252.229 360.016 252.594 359.266V355.797H250.328C246.786 355.797 245.016 356.833 245.016 358.906C245.016 359.812 245.318 360.521 245.922 361.031C246.526 361.542 247.302 361.797 248.25 361.797ZM265.344 360.078L269.531 347.094H272.484L266.422 364H264.219L258.094 347.094H261.047L265.344 360.078ZM285.453 364C285.286 363.667 285.151 363.073 285.047 362.219C283.703 363.615 282.099 364.312 280.234 364.312C278.568 364.312 277.198 363.844 276.125 362.906C275.062 361.958 274.531 360.76 274.531 359.312C274.531 357.552 275.198 356.188 276.531 355.219C277.875 354.24 279.76 353.75 282.188 353.75H285V352.422C285 351.411 284.698 350.609 284.094 350.016C283.49 349.411 282.599 349.109 281.422 349.109C280.391 349.109 279.526 349.37 278.828 349.891C278.13 350.411 277.781 351.042 277.781 351.781H274.875C274.875 350.938 275.172 350.125 275.766 349.344C276.37 348.552 277.182 347.927 278.203 347.469C279.234 347.01 280.365 346.781 281.594 346.781C283.542 346.781 285.068 347.271 286.172 348.25C287.276 349.219 287.849 350.557 287.891 352.266V360.047C287.891 361.599 288.089 362.833 288.484 363.75V364H285.453ZM280.656 361.797C281.562 361.797 282.422 361.562 283.234 361.094C284.047 360.625 284.635 360.016 285 359.266V355.797H282.734C279.193 355.797 277.422 356.833 277.422 358.906C277.422 359.812 277.724 360.521 278.328 361.031C278.932 361.542 279.708 361.797 280.656 361.797ZM295.562 364H292.672V347.094H295.562V364ZM292.438 342.609C292.438 342.141 292.578 341.745 292.859 341.422C293.151 341.099 293.578 340.938 294.141 340.938C294.703 340.938 295.13 341.099 295.422 341.422C295.714 341.745 295.859 342.141 295.859 342.609C295.859 343.078 295.714 343.469 295.422 343.781C295.13 344.094 294.703 344.25 294.141 344.25C293.578 344.25 293.151 344.094 292.859 343.781C292.578 343.469 292.438 343.078 292.438 342.609ZM303.344 364H300.453V340H303.344V364ZM318.422 364C318.255 363.667 318.12 363.073 318.016 362.219C316.672 363.615 315.068 364.312 313.203 364.312C311.536 364.312 310.167 363.844 309.094 362.906C308.031 361.958 307.5 360.76 307.5 359.312C307.5 357.552 308.167 356.188 309.5 355.219C310.844 354.24 312.729 353.75 315.156 353.75H317.969V352.422C317.969 351.411 317.667 350.609 317.062 350.016C316.458 349.411 315.568 349.109 314.391 349.109C313.359 349.109 312.495 349.37 311.797 349.891C311.099 350.411 310.75 351.042 310.75 351.781H307.844C307.844 350.938 308.141 350.125 308.734 349.344C309.339 348.552 310.151 347.927 311.172 347.469C312.203 347.01 313.333 346.781 314.562 346.781C316.51 346.781 318.036 347.271 319.141 348.25C320.245 349.219 320.818 350.557 320.859 352.266V360.047C320.859 361.599 321.057 362.833 321.453 363.75V364H318.422ZM313.625 361.797C314.531 361.797 315.391 361.562 316.203 361.094C317.016 360.625 317.604 360.016 317.969 359.266V355.797H315.703C312.161 355.797 310.391 356.833 310.391 358.906C310.391 359.812 310.693 360.521 311.297 361.031C311.901 361.542 312.677 361.797 313.625 361.797ZM339.703 355.734C339.703 358.318 339.109 360.396 337.922 361.969C336.734 363.531 335.141 364.312 333.141 364.312C331.005 364.312 329.354 363.557 328.188 362.047L328.047 364H325.391V340H328.281V348.953C329.448 347.505 331.057 346.781 333.109 346.781C335.161 346.781 336.771 347.557 337.938 349.109C339.115 350.661 339.703 352.786 339.703 355.484V355.734ZM336.812 355.406C336.812 353.438 336.432 351.917 335.672 350.844C334.911 349.771 333.818 349.234 332.391 349.234C330.484 349.234 329.115 350.12 328.281 351.891V359.203C329.167 360.974 330.547 361.859 332.422 361.859C333.807 361.859 334.885 361.323 335.656 360.25C336.427 359.177 336.812 357.562 336.812 355.406ZM346.5 364H343.609V340H346.5V364ZM358.156 364.312C355.865 364.312 354 363.562 352.562 362.062C351.125 360.552 350.406 358.536 350.406 356.016V355.484C350.406 353.807 350.724 352.312 351.359 351C352.005 349.677 352.901 348.646 354.047 347.906C355.203 347.156 356.453 346.781 357.797 346.781C359.995 346.781 361.703 347.505 362.922 348.953C364.141 350.401 364.75 352.474 364.75 355.172V356.375H353.297C353.339 358.042 353.823 359.391 354.75 360.422C355.688 361.443 356.875 361.953 358.312 361.953C359.333 361.953 360.198 361.745 360.906 361.328C361.615 360.911 362.234 360.359 362.766 359.672L364.531 361.047C363.115 363.224 360.99 364.312 358.156 364.312ZM357.797 349.156C356.63 349.156 355.651 349.583 354.859 350.438C354.068 351.281 353.578 352.469 353.391 354H361.859V353.781C361.776 352.312 361.38 351.177 360.672 350.375C359.964 349.562 359.005 349.156 357.797 349.156ZM378.938 349.141C380.219 347.568 381.885 346.781 383.938 346.781C387.51 346.781 389.312 348.797 389.344 352.828V364H386.453V352.812C386.443 351.594 386.161 350.693 385.609 350.109C385.068 349.526 384.219 349.234 383.062 349.234C382.125 349.234 381.302 349.484 380.594 349.984C379.885 350.484 379.333 351.141 378.938 351.953V364H376.047V340H378.938V349.141ZM400.688 364.312C398.396 364.312 396.531 363.562 395.094 362.062C393.656 360.552 392.938 358.536 392.938 356.016V355.484C392.938 353.807 393.255 352.312 393.891 351C394.536 349.677 395.432 348.646 396.578 347.906C397.734 347.156 398.984 346.781 400.328 346.781C402.526 346.781 404.234 347.505 405.453 348.953C406.672 350.401 407.281 352.474 407.281 355.172V356.375H395.828C395.87 358.042 396.354 359.391 397.281 360.422C398.219 361.443 399.406 361.953 400.844 361.953C401.865 361.953 402.729 361.745 403.438 361.328C404.146 360.911 404.766 360.359 405.297 359.672L407.062 361.047C405.646 363.224 403.521 364.312 400.688 364.312ZM400.328 349.156C399.161 349.156 398.182 349.583 397.391 350.438C396.599 351.281 396.109 352.469 395.922 354H404.391V353.781C404.307 352.312 403.911 351.177 403.203 350.375C402.495 349.562 401.536 349.156 400.328 349.156ZM418.812 349.688C418.375 349.615 417.901 349.578 417.391 349.578C415.495 349.578 414.208 350.385 413.531 352V364H410.641V347.094H413.453L413.5 349.047C414.448 347.536 415.792 346.781 417.531 346.781C418.094 346.781 418.521 346.854 418.812 347V349.688ZM428.188 364.312C425.896 364.312 424.031 363.562 422.594 362.062C421.156 360.552 420.438 358.536 420.438 356.016V355.484C420.438 353.807 420.755 352.312 421.391 351C422.036 349.677 422.932 348.646 424.078 347.906C425.234 347.156 426.484 346.781 427.828 346.781C430.026 346.781 431.734 347.505 432.953 348.953C434.172 350.401 434.781 352.474 434.781 355.172V356.375H423.328C423.37 358.042 423.854 359.391 424.781 360.422C425.719 361.443 426.906 361.953 428.344 361.953C429.365 361.953 430.229 361.745 430.938 361.328C431.646 360.911 432.266 360.359 432.797 359.672L434.562 361.047C433.146 363.224 431.021 364.312 428.188 364.312ZM427.828 349.156C426.661 349.156 425.682 349.583 424.891 350.438C424.099 351.281 423.609 352.469 423.422 354H431.891V353.781C431.807 352.312 431.411 351.177 430.703 350.375C429.995 349.562 429.036 349.156 427.828 349.156ZM461.047 360.016L464.297 347.094H467.188L462.266 364H459.922L455.812 351.188L451.812 364H449.469L444.562 347.094H447.438L450.766 359.75L454.703 347.094H457.031L461.047 360.016ZM473.031 349.141C474.312 347.568 475.979 346.781 478.031 346.781C481.604 346.781 483.406 348.797 483.438 352.828V364H480.547V352.812C480.536 351.594 480.255 350.693 479.703 350.109C479.161 349.526 478.312 349.234 477.156 349.234C476.219 349.234 475.396 349.484 474.688 349.984C473.979 350.484 473.427 351.141 473.031 351.953V364H470.141V340H473.031V349.141ZM494.781 364.312C492.49 364.312 490.625 363.562 489.188 362.062C487.75 360.552 487.031 358.536 487.031 356.016V355.484C487.031 353.807 487.349 352.312 487.984 351C488.63 349.677 489.526 348.646 490.672 347.906C491.828 347.156 493.078 346.781 494.422 346.781C496.62 346.781 498.328 347.505 499.547 348.953C500.766 350.401 501.375 352.474 501.375 355.172V356.375H489.922C489.964 358.042 490.448 359.391 491.375 360.422C492.312 361.443 493.5 361.953 494.938 361.953C495.958 361.953 496.823 361.745 497.531 361.328C498.24 360.911 498.859 360.359 499.391 359.672L501.156 361.047C499.74 363.224 497.615 364.312 494.781 364.312ZM494.422 349.156C493.255 349.156 492.276 349.583 491.484 350.438C490.693 351.281 490.203 352.469 490.016 354H498.484V353.781C498.401 352.312 498.005 351.177 497.297 350.375C496.589 349.562 495.63 349.156 494.422 349.156ZM507.469 347.094L507.562 349.219C508.854 347.594 510.542 346.781 512.625 346.781C516.198 346.781 518 348.797 518.031 352.828V364H515.141V352.812C515.13 351.594 514.849 350.693 514.297 350.109C513.755 349.526 512.906 349.234 511.75 349.234C510.812 349.234 509.99 349.484 509.281 349.984C508.573 350.484 508.021 351.141 507.625 351.953V364H504.734V347.094H507.469ZM535.859 359.766L539.797 347.094H542.891L536.094 366.609C535.042 369.422 533.37 370.828 531.078 370.828L530.531 370.781L529.453 370.578V368.234L530.234 368.297C531.214 368.297 531.974 368.099 532.516 367.703C533.068 367.307 533.521 366.583 533.875 365.531L534.516 363.812L528.484 347.094H531.641L535.859 359.766ZM544.469 355.391C544.469 353.734 544.792 352.245 545.438 350.922C546.094 349.599 547 348.578 548.156 347.859C549.323 347.141 550.651 346.781 552.141 346.781C554.443 346.781 556.302 347.578 557.719 349.172C559.146 350.766 559.859 352.885 559.859 355.531V355.734C559.859 357.38 559.542 358.859 558.906 360.172C558.281 361.474 557.38 362.49 556.203 363.219C555.036 363.948 553.693 364.312 552.172 364.312C549.88 364.312 548.021 363.516 546.594 361.922C545.177 360.328 544.469 358.219 544.469 355.594V355.391ZM547.375 355.734C547.375 357.609 547.807 359.115 548.672 360.25C549.547 361.385 550.714 361.953 552.172 361.953C553.641 361.953 554.807 361.38 555.672 360.234C556.536 359.078 556.969 357.464 556.969 355.391C556.969 353.536 556.526 352.036 555.641 350.891C554.766 349.734 553.599 349.156 552.141 349.156C550.714 349.156 549.562 349.724 548.688 350.859C547.812 351.995 547.375 353.62 547.375 355.734ZM573.922 362.328C572.797 363.651 571.146 364.312 568.969 364.312C567.167 364.312 565.792 363.792 564.844 362.75C563.906 361.698 563.432 360.146 563.422 358.094V347.094H566.312V358.016C566.312 360.578 567.354 361.859 569.438 361.859C571.646 361.859 573.115 361.036 573.844 359.391V347.094H576.734V364H573.984L573.922 362.328ZM163.109 387.141C164.391 385.568 166.057 384.781 168.109 384.781C171.682 384.781 173.484 386.797 173.516 390.828V402H170.625V390.812C170.615 389.594 170.333 388.693 169.781 388.109C169.24 387.526 168.391 387.234 167.234 387.234C166.297 387.234 165.474 387.484 164.766 387.984C164.057 388.484 163.505 389.141 163.109 389.953V402H160.219V378H163.109V387.141ZM188.281 402C188.115 401.667 187.979 401.073 187.875 400.219C186.531 401.615 184.927 402.312 183.062 402.312C181.396 402.312 180.026 401.844 178.953 400.906C177.891 399.958 177.359 398.76 177.359 397.312C177.359 395.552 178.026 394.188 179.359 393.219C180.703 392.24 182.589 391.75 185.016 391.75H187.828V390.422C187.828 389.411 187.526 388.609 186.922 388.016C186.318 387.411 185.427 387.109 184.25 387.109C183.219 387.109 182.354 387.37 181.656 387.891C180.958 388.411 180.609 389.042 180.609 389.781H177.703C177.703 388.938 178 388.125 178.594 387.344C179.198 386.552 180.01 385.927 181.031 385.469C182.062 385.01 183.193 384.781 184.422 384.781C186.37 384.781 187.896 385.271 189 386.25C190.104 387.219 190.677 388.557 190.719 390.266V398.047C190.719 399.599 190.917 400.833 191.312 401.75V402H188.281ZM183.484 399.797C184.391 399.797 185.25 399.562 186.062 399.094C186.875 398.625 187.464 398.016 187.828 397.266V393.797H185.562C182.021 393.797 180.25 394.833 180.25 396.906C180.25 397.812 180.552 398.521 181.156 399.031C181.76 399.542 182.536 399.797 183.484 399.797ZM200.578 398.078L204.766 385.094H207.719L201.656 402H199.453L193.328 385.094H196.281L200.578 398.078ZM217.297 402.312C215.005 402.312 213.141 401.562 211.703 400.062C210.266 398.552 209.547 396.536 209.547 394.016V393.484C209.547 391.807 209.865 390.312 210.5 389C211.146 387.677 212.042 386.646 213.188 385.906C214.344 385.156 215.594 384.781 216.938 384.781C219.135 384.781 220.844 385.505 222.062 386.953C223.281 388.401 223.891 390.474 223.891 393.172V394.375H212.438C212.479 396.042 212.964 397.391 213.891 398.422C214.828 399.443 216.016 399.953 217.453 399.953C218.474 399.953 219.339 399.745 220.047 399.328C220.755 398.911 221.375 398.359 221.906 397.672L223.672 399.047C222.255 401.224 220.13 402.312 217.297 402.312ZM216.938 387.156C215.771 387.156 214.792 387.583 214 388.438C213.208 389.281 212.719 390.469 212.531 392H221V391.781C220.917 390.312 220.521 389.177 219.812 388.375C219.104 387.562 218.146 387.156 216.938 387.156ZM237.906 385.094L237.984 386.969C239.224 385.51 240.896 384.781 243 384.781C245.365 384.781 246.974 385.688 247.828 387.5C248.391 386.688 249.12 386.031 250.016 385.531C250.922 385.031 251.99 384.781 253.219 384.781C256.927 384.781 258.812 386.745 258.875 390.672V402H255.984V390.844C255.984 389.635 255.708 388.734 255.156 388.141C254.604 387.536 253.677 387.234 252.375 387.234C251.302 387.234 250.411 387.557 249.703 388.203C248.995 388.839 248.583 389.698 248.469 390.781V402H245.562V390.922C245.562 388.464 244.359 387.234 241.953 387.234C240.057 387.234 238.76 388.042 238.062 389.656V402H235.172V385.094H237.906ZM273.688 402C273.521 401.667 273.385 401.073 273.281 400.219C271.938 401.615 270.333 402.312 268.469 402.312C266.802 402.312 265.432 401.844 264.359 400.906C263.297 399.958 262.766 398.76 262.766 397.312C262.766 395.552 263.432 394.188 264.766 393.219C266.109 392.24 267.995 391.75 270.422 391.75H273.234V390.422C273.234 389.411 272.932 388.609 272.328 388.016C271.724 387.411 270.833 387.109 269.656 387.109C268.625 387.109 267.76 387.37 267.062 387.891C266.365 388.411 266.016 389.042 266.016 389.781H263.109C263.109 388.938 263.406 388.125 264 387.344C264.604 386.552 265.417 385.927 266.438 385.469C267.469 385.01 268.599 384.781 269.828 384.781C271.776 384.781 273.302 385.271 274.406 386.25C275.51 387.219 276.083 388.557 276.125 390.266V398.047C276.125 399.599 276.323 400.833 276.719 401.75V402H273.688ZM268.891 399.797C269.797 399.797 270.656 399.562 271.469 399.094C272.281 398.625 272.87 398.016 273.234 397.266V393.797H270.969C267.427 393.797 265.656 394.833 265.656 396.906C265.656 397.812 265.958 398.521 266.562 399.031C267.167 399.542 267.943 399.797 268.891 399.797ZM283.797 402H280.906V385.094H283.797V402ZM280.672 380.609C280.672 380.141 280.812 379.745 281.094 379.422C281.385 379.099 281.812 378.938 282.375 378.938C282.938 378.938 283.365 379.099 283.656 379.422C283.948 379.745 284.094 380.141 284.094 380.609C284.094 381.078 283.948 381.469 283.656 381.781C283.365 382.094 282.938 382.25 282.375 382.25C281.812 382.25 281.385 382.094 281.094 381.781C280.812 381.469 280.672 381.078 280.672 380.609ZM291.578 402H288.688V378H291.578V402ZM299.359 402H296.469V385.094H299.359V402ZM296.234 380.609C296.234 380.141 296.375 379.745 296.656 379.422C296.948 379.099 297.375 378.938 297.938 378.938C298.5 378.938 298.927 379.099 299.219 379.422C299.51 379.745 299.656 380.141 299.656 380.609C299.656 381.078 299.51 381.469 299.219 381.781C298.927 382.094 298.5 382.25 297.938 382.25C297.375 382.25 296.948 382.094 296.656 381.781C296.375 381.469 296.234 381.078 296.234 380.609ZM306.734 385.094L306.828 387.219C308.12 385.594 309.807 384.781 311.891 384.781C315.464 384.781 317.266 386.797 317.297 390.828V402H314.406V390.812C314.396 389.594 314.115 388.693 313.562 388.109C313.021 387.526 312.172 387.234 311.016 387.234C310.078 387.234 309.255 387.484 308.547 387.984C307.839 388.484 307.286 389.141 306.891 389.953V402H304V385.094H306.734ZM320.969 393.406C320.969 390.771 321.578 388.677 322.797 387.125C324.016 385.562 325.63 384.781 327.641 384.781C329.703 384.781 331.312 385.51 332.469 386.969L332.609 385.094H335.25V401.594C335.25 403.781 334.599 405.505 333.297 406.766C332.005 408.026 330.266 408.656 328.078 408.656C326.859 408.656 325.667 408.396 324.5 407.875C323.333 407.354 322.443 406.641 321.828 405.734L323.328 404C324.568 405.531 326.083 406.297 327.875 406.297C329.281 406.297 330.375 405.901 331.156 405.109C331.948 404.318 332.344 403.203 332.344 401.766V400.312C331.188 401.646 329.609 402.312 327.609 402.312C325.63 402.312 324.026 401.516 322.797 399.922C321.578 398.328 320.969 396.156 320.969 393.406ZM323.875 393.734C323.875 395.641 324.266 397.141 325.047 398.234C325.828 399.318 326.922 399.859 328.328 399.859C330.151 399.859 331.49 399.031 332.344 397.375V389.656C331.458 388.042 330.13 387.234 328.359 387.234C326.953 387.234 325.854 387.781 325.062 388.875C324.271 389.969 323.875 391.589 323.875 393.734ZM350.453 387.141C351.734 385.568 353.401 384.781 355.453 384.781C359.026 384.781 360.828 386.797 360.859 390.828V402H357.969V390.812C357.958 389.594 357.677 388.693 357.125 388.109C356.583 387.526 355.734 387.234 354.578 387.234C353.641 387.234 352.818 387.484 352.109 387.984C351.401 388.484 350.849 389.141 350.453 389.953V402H347.562V378H350.453V387.141ZM368.328 402H365.438V385.094H368.328V402ZM365.203 380.609C365.203 380.141 365.344 379.745 365.625 379.422C365.917 379.099 366.344 378.938 366.906 378.938C367.469 378.938 367.896 379.099 368.188 379.422C368.479 379.745 368.625 380.141 368.625 380.609C368.625 381.078 368.479 381.469 368.188 381.781C367.896 382.094 367.469 382.25 366.906 382.25C366.344 382.25 365.917 382.094 365.625 381.781C365.344 381.469 365.203 381.078 365.203 380.609ZM382.812 397.516C382.812 396.734 382.516 396.13 381.922 395.703C381.339 395.266 380.312 394.891 378.844 394.578C377.385 394.266 376.224 393.891 375.359 393.453C374.505 393.016 373.87 392.495 373.453 391.891C373.047 391.286 372.844 390.568 372.844 389.734C372.844 388.349 373.427 387.177 374.594 386.219C375.771 385.26 377.271 384.781 379.094 384.781C381.01 384.781 382.562 385.276 383.75 386.266C384.948 387.255 385.547 388.521 385.547 390.062H382.641C382.641 389.271 382.302 388.589 381.625 388.016C380.958 387.443 380.115 387.156 379.094 387.156C378.042 387.156 377.219 387.385 376.625 387.844C376.031 388.302 375.734 388.901 375.734 389.641C375.734 390.339 376.01 390.865 376.562 391.219C377.115 391.573 378.109 391.911 379.547 392.234C380.995 392.557 382.167 392.943 383.062 393.391C383.958 393.839 384.62 394.38 385.047 395.016C385.484 395.641 385.703 396.406 385.703 397.312C385.703 398.823 385.099 400.036 383.891 400.953C382.682 401.859 381.115 402.312 379.188 402.312C377.833 402.312 376.635 402.073 375.594 401.594C374.552 401.115 373.734 400.448 373.141 399.594C372.557 398.729 372.266 397.797 372.266 396.797H375.156C375.208 397.766 375.594 398.536 376.312 399.109C377.042 399.672 378 399.953 379.188 399.953C380.281 399.953 381.156 399.734 381.812 399.297C382.479 398.849 382.812 398.255 382.812 397.516ZM393.391 381V385.094H396.547V387.328H393.391V397.812C393.391 398.49 393.531 399 393.812 399.344C394.094 399.677 394.573 399.844 395.25 399.844C395.583 399.844 396.042 399.781 396.625 399.656V402C395.865 402.208 395.125 402.312 394.406 402.312C393.115 402.312 392.141 401.922 391.484 401.141C390.828 400.359 390.5 399.25 390.5 397.812V387.328H387.422V385.094H390.5V381H393.391ZM398.859 393.391C398.859 391.734 399.182 390.245 399.828 388.922C400.484 387.599 401.391 386.578 402.547 385.859C403.714 385.141 405.042 384.781 406.531 384.781C408.833 384.781 410.693 385.578 412.109 387.172C413.536 388.766 414.25 390.885 414.25 393.531V393.734C414.25 395.38 413.932 396.859 413.297 398.172C412.672 399.474 411.771 400.49 410.594 401.219C409.427 401.948 408.083 402.312 406.562 402.312C404.271 402.312 402.411 401.516 400.984 399.922C399.568 398.328 398.859 396.219 398.859 393.594V393.391ZM401.766 393.734C401.766 395.609 402.198 397.115 403.062 398.25C403.938 399.385 405.104 399.953 406.562 399.953C408.031 399.953 409.198 399.38 410.062 398.234C410.927 397.078 411.359 395.464 411.359 393.391C411.359 391.536 410.917 390.036 410.031 388.891C409.156 387.734 407.99 387.156 406.531 387.156C405.104 387.156 403.953 387.724 403.078 388.859C402.203 389.995 401.766 391.62 401.766 393.734ZM426.047 387.688C425.609 387.615 425.135 387.578 424.625 387.578C422.729 387.578 421.443 388.385 420.766 390V402H417.875V385.094H420.688L420.734 387.047C421.682 385.536 423.026 384.781 424.766 384.781C425.328 384.781 425.755 384.854 426.047 385V387.688ZM434.531 397.766L438.469 385.094H441.562L434.766 404.609C433.714 407.422 432.042 408.828 429.75 408.828L429.203 408.781L428.125 408.578V406.234L428.906 406.297C429.885 406.297 430.646 406.099 431.188 405.703C431.74 405.307 432.193 404.583 432.547 403.531L433.188 401.812L427.156 385.094H430.312L434.531 397.766Z" fill="#959595"/>
</svg>
